# xmcd
#
# Track frame offsets:
#	183
#	19383
#	49858
#	64070
#
# Disc length: 1285 seconds
#
# Revision: 4
# Processed by: cddbd v1.4PL0 Copyright (c) Steve Scherf et al.
# Submitted via: audiograbber 1.81.01
#
DISCID=32050304
DTITLE=Sandra - Hiroshima (Single-CD)
DYEAR=1989
DGENRE=
TTITLE0=Hiroshima (Single Version)
TTITLE1=Hiroshima (Extended Version)
TTITLE2=Hiroshima (Dub Mix)
TTITLE3=Heaven Can Wait (Us-Remix)
EXTD=
EXTT0=
EXTT1=
EXTT2=
EXTT3=
PLAYORDER=
